<?xml version="1.0" encoding="utf-8"?><!DOCTYPE svg PUBLIC "-//W3C//DTD SVG 1.1//EN" "http://www.w3.org/Graphics/SVG/1.1/DTD/svg11.dtd"><svg height="800px" width="800px" version="1.1" id="_x32_" xmlns="http://www.w3.org/2000/svg" xmlns:xlink="http://www.w3.org/1999/xlink" viewBox="0 0 512 512"  xml:space="preserve"><style type="text/css">.st0{fill:#000000;}</style><g><path class="st0" d="M333.913,92.944C267.134,87.374,256,104.07,256,104.07s-11.134-16.696-77.913-11.126C111.307,98.508,61.217,176.421,0,232.074c0,0,77.914,122.433,256,122.433c27.253,0,52.13-2.892,74.765-7.744c16.805,4.509,3.906,31.031,3.906,45.942c0,17.18,10.308,27.488,22.334,27.488s17.18-13.744,17.18-29.206c0-15.462-19.602-45.956,6.872-58.412c3.96-1.866,7.617-3.718,11.073-5.55C474.486,290.929,512,232.074,512,232.074
		C450.784,176.421,400.693,98.508,333.913,92.944z M389.01,295.612c-1.074,5.94-5.858,10.335-11.583,10.63
		c-5.724,0.295-10.899-3.598-12.503-9.395l-13.643-49.326c0,0-29.676,7.536-43.735,0c0,0-34.366,15.06-51.546-1.879
		c-17.187,16.939-51.546,1.879-51.546,1.879c-14.059,7.536-43.735,0-43.735,0l-13.643,49.326c-1.604,5.798-6.778,9.69-12.503,9.395
		c-5.724-0.296-10.509-4.691-11.583-10.63c0,0-30.998-89.496-15.381-85.731c15.622,3.765,59.358-3.765,70.29-5.644
		c10.932-1.879,48.426,5.644,78.102,5.644c29.675,0,67.169-7.523,78.101-5.644c10.932,1.879,54.667,9.409,70.289,5.644
		C420.008,206.116,389.01,295.612,389.01,295.612z"/></g></svg>